<?xml version="1.0" standalone="no"?>
<!DOCTYPE svg PUBLIC "-//W3C//DTD SVG 20010904//EN"
 "http://www.w3.org/TR/2001/REC-SVG-20010904/DTD/svg10.dtd">
<svg version="1.0" xmlns="http://www.w3.org/2000/svg"
 width="1024.000000pt" height="1024.000000pt" viewBox="0 0 1024.000000 1024.000000"
 preserveAspectRatio="xMidYMid meet">
<metadata>
Created by potrace 1.16, written by Peter Selinger 2001-2019
</metadata>
<g transform="translate(0.000000,1024.000000) scale(0.100000,-0.100000)"
fill="#000000" stroke="none">
<path d="M0 5120 l0 -5120 5120 0 5120 0 0 5120 0 5120 -5120 0 -5120 0 0
-5120z m5440 3485 c267 -25 448 -60 680 -132 529 -163 973 -425 1373 -809 l98
-94 -201 0 -200 0 -84 69 c-47 38 -136 102 -198 143 -435 286 -854 448 -1338
520 -135 20 -192 23 -440 22 -299 -1 -435 -14 -665 -65 -465 -103 -970 -342
-1336 -635 l-68 -54 -198 0 -198 1 80 76 c279 266 538 450 862 613 564 283
1203 403 1833 345z m1883 -1222 c251 -3 457 -10 457 -15 0 -9 -185 -218 -375
-422 -138 -149 -373 -409 -645 -716 -91 -102 -248 -277 -349 -390 -102 -113
-219 -243 -260 -289 -42 -46 -155 -173 -251 -281 -329 -369 -681 -761 -950
-1060 -107 -119 -267 -297 -355 -395 -164 -184 -268 -300 -484 -538 l-124
-137 -749 0 -749 0 118 128 c64 70 195 210 289 312 94 102 191 208 215 236 68
79 682 763 844 939 107 117 591 655 845 939 124 139 304 338 800 881 140 154
300 330 355 390 55 61 165 182 243 268 l144 157 261 0 c144 0 468 -3 720 -7z
m-3355 -65 c33 -35 82 -88 108 -119 27 -31 121 -137 209 -235 89 -99 281 -315
428 -482 l268 -302 -128 -143 c-70 -78 -235 -260 -366 -405 l-239 -263 -62 68
c-34 37 -112 124 -173 193 -113 127 -740 835 -998 1125 -78 88 -175 194 -215
235 -110 113 -300 341 -300 360 0 9 3 20 7 23 3 4 320 7 704 7 l697 0 60 -62z
m4059 -303 c149 -238 246 -441 330 -690 293 -862 221 -1793 -198 -2594 -61
-116 -219 -363 -241 -377 -7 -5 -25 8 -47 33 -20 23 -59 67 -88 100 l-51 59
49 74 c467 705 599 1644 352 2495 -81 280 -209 566 -348 781 l-53 81 90 97
c50 53 95 95 101 93 5 -1 52 -70 104 -152z m-5641 93 c28 -29 67 -73 87 -98
32 -41 34 -47 21 -65 -31 -42 -124 -204 -176 -310 -143 -288 -241 -604 -294
-957 -24 -161 -30 -562 -10 -732 54 -464 195 -878 432 -1268 42 -68 63 -112
58 -120 -22 -36 -169 -198 -177 -195 -5 1 -50 66 -99 142 -278 436 -446 927
-499 1459 -15 152 -6 590 15 736 62 425 189 808 378 1140 67 118 199 320 208
320 3 0 28 -24 56 -52z m3816 -2205 c107 -120 235 -263 284 -318 99 -110 620
-702 783 -888 57 -65 147 -164 200 -221 104 -111 251 -277 276 -313 l16 -23
-724 0 -724 0 -110 123 c-154 171 -740 830 -845 950 l-87 100 32 37 c45 52
260 290 402 446 66 72 158 174 205 227 47 53 88 96 91 96 3 1 93 -97 201 -216z
m-3023 -2027 c99 -81 311 -216 462 -295 584 -306 1135 -412 1804 -350 564 53
1148 280 1615 628 l95 71 203 0 204 0 -54 -49 c-120 -109 -249 -216 -353 -291
-872 -627 -1969 -820 -2985 -525 -253 74 -589 220 -807 351 -203 122 -445 305
-613 462 l-55 51 209 1 209 0 66 -54z"/>
</g>
</svg>
